<?xml version="1.0" standalone="no"?><!DOCTYPE svg PUBLIC "-//W3C//DTD SVG 1.1//EN" "http://www.w3.org/Graphics/SVG/1.1/DTD/svg11.dtd"><svg t="1541820998171" class="icon" style="" viewBox="0 0 1024 1024" version="1.1" xmlns="http://www.w3.org/2000/svg" p-id="1692" xmlns:xlink="http://www.w3.org/1999/xlink" width="128" height="128"><defs><style type="text/css"></style></defs><path d="M147.2 256H576v57.6H147.2z" p-id="1693" fill="#7e61ef"></path><path d="M992 25.6C972.8 6.4 940.8 0 915.2 0h-672c-25.6 0-57.6 6.4-76.8 25.6-19.2 19.2-32 44.8-32 70.4v32h-19.2c-32 0-57.6 12.8-76.8 25.6C12.8 179.2 0 204.8 0 230.4V928c0 25.6 12.8 51.2 32 70.4 25.6 19.2 51.2 25.6 76.8 25.6h665.6c32 0 57.6-6.4 76.8-25.6 19.2-19.2 38.4-44.8 38.4-70.4v-32h19.2c32 0 57.6-6.4 76.8-25.6 19.2-19.2 32-44.8 32-70.4V96c12.8-25.6 0-51.2-25.6-70.4zM838.4 928c0 19.2-25.6 38.4-57.6 38.4H115.2c-32 0-57.6-19.2-57.6-38.4V422.4h780.8V928z m0-563.2H57.6v-128c0-25.6 25.6-44.8 57.6-44.8h665.6c32 0 57.6 19.2 57.6 38.4v134.4zM192 134.4V83.2c0-6.4 6.4-6.4 6.4-12.8 12.8-6.4 25.6-12.8 44.8-12.8h665.6c32 0 57.6 19.2 57.6 38.4v697.6c0 6.4-6.4 19.2-12.8 25.6l-6.4 6.4s-6.4 0-6.4 6.4h-38.4V230.4s12.8-70.4-51.2-96" p-id="1694" fill="#7e61ef"></path><path d="M704 249.6c-19.2 0-32 12.8-32 32s12.8 32 32 32 32-12.8 32-32-12.8-32-32-32z" p-id="1695" fill="#7e61ef"></path></svg>