<?xml version="1.0" standalone="no"?><!DOCTYPE svg PUBLIC "-//W3C//DTD SVG 1.1//EN" "http://www.w3.org/Graphics/SVG/1.1/DTD/svg11.dtd"><svg t="1541838250466" class="icon" style="" viewBox="0 0 1024 1024" version="1.1" xmlns="http://www.w3.org/2000/svg" p-id="2827" xmlns:xlink="http://www.w3.org/1999/xlink" width="128" height="128"><defs><style type="text/css"></style></defs><path d="M943.157895 425.768421C943.157895 191.326316 749.136842 0 512 0S80.842105 191.326316 80.842105 425.768421c0 180.547368 113.178947 334.147368 272.168421 396.126316l-99.705263 177.852631c0 13.473684 10.778947 24.252632 24.252632 24.252632h495.831579c13.473684 0 24.252632-10.778947 24.252631-24.252632l-105.094737-185.936842c148.210526-67.368421 250.610526-215.578947 250.610527-388.042105z m-431.157895 266.778947c-148.210526 0-269.473684-121.263158-269.473684-269.473684s121.263158-269.473684 269.473684-269.473684 269.473684 121.263158 269.473684 269.473684-121.263158 269.473684-269.473684 269.473684z m0-485.052631c-118.568421 0-215.578947 97.010526-215.578947 215.578947s97.010526 215.578947 215.578947 215.578948 215.578947-97.010526 215.578947-215.578948-97.010526-215.578947-215.578947-215.578947z" fill="#FF3451" p-id="2828"></path></svg>